<mxfile host="Electron" agent="Mozilla/5.0 (Windows NT 10.0; Win64; x64) AppleWebKit/537.36 (KHTML, like Gecko) draw.io/24.7.8 Chrome/128.0.6613.36 Electron/32.0.1 Safari/537.36" version="24.7.8">
  <diagram name="Page-1" id="T3CE77xROmj0Q3ps77HQ">
    <mxGraphModel dx="780" dy="496" grid="1" gridSize="10" guides="1" tooltips="1" connect="1" arrows="1" fold="1" page="1" pageScale="1" pageWidth="850" pageHeight="1100" math="0" shadow="0">
      <root>
        <mxCell id="0" />
        <mxCell id="1" parent="0" />
        <mxCell id="faQm33EsQPKcjgNFkxqq-3" value="" style="edgeStyle=orthogonalEdgeStyle;rounded=0;orthogonalLoop=1;jettySize=auto;html=1;" edge="1" parent="1" source="faQm33EsQPKcjgNFkxqq-1" target="faQm33EsQPKcjgNFkxqq-2">
          <mxGeometry relative="1" as="geometry" />
        </mxCell>
        <mxCell id="faQm33EsQPKcjgNFkxqq-1" value="Mulai" style="ellipse;whiteSpace=wrap;html=1;" vertex="1" parent="1">
          <mxGeometry x="340" y="220" width="120" height="80" as="geometry" />
        </mxCell>
        <mxCell id="faQm33EsQPKcjgNFkxqq-5" value="" style="edgeStyle=orthogonalEdgeStyle;rounded=0;orthogonalLoop=1;jettySize=auto;html=1;" edge="1" parent="1" source="faQm33EsQPKcjgNFkxqq-2" target="faQm33EsQPKcjgNFkxqq-4">
          <mxGeometry relative="1" as="geometry" />
        </mxCell>
        <mxCell id="faQm33EsQPKcjgNFkxqq-2" value="Halaman Pesan" style="shape=process;whiteSpace=wrap;html=1;backgroundOutline=1;" vertex="1" parent="1">
          <mxGeometry x="340" y="360" width="120" height="60" as="geometry" />
        </mxCell>
        <mxCell id="faQm33EsQPKcjgNFkxqq-7" value="" style="edgeStyle=orthogonalEdgeStyle;rounded=0;orthogonalLoop=1;jettySize=auto;html=1;" edge="1" parent="1" source="faQm33EsQPKcjgNFkxqq-4" target="faQm33EsQPKcjgNFkxqq-6">
          <mxGeometry relative="1" as="geometry" />
        </mxCell>
        <mxCell id="faQm33EsQPKcjgNFkxqq-4" value="Pilih Siswa" style="whiteSpace=wrap;html=1;" vertex="1" parent="1">
          <mxGeometry x="340" y="470" width="120" height="60" as="geometry" />
        </mxCell>
        <mxCell id="faQm33EsQPKcjgNFkxqq-9" value="" style="edgeStyle=orthogonalEdgeStyle;rounded=0;orthogonalLoop=1;jettySize=auto;html=1;" edge="1" parent="1" source="faQm33EsQPKcjgNFkxqq-6" target="faQm33EsQPKcjgNFkxqq-8">
          <mxGeometry relative="1" as="geometry" />
        </mxCell>
        <mxCell id="faQm33EsQPKcjgNFkxqq-6" value="Halaman Detail Pesan" style="shape=process;whiteSpace=wrap;html=1;backgroundOutline=1;" vertex="1" parent="1">
          <mxGeometry x="340" y="580" width="120" height="60" as="geometry" />
        </mxCell>
        <mxCell id="faQm33EsQPKcjgNFkxqq-11" value="" style="edgeStyle=orthogonalEdgeStyle;rounded=0;orthogonalLoop=1;jettySize=auto;html=1;" edge="1" parent="1" source="faQm33EsQPKcjgNFkxqq-8" target="faQm33EsQPKcjgNFkxqq-10">
          <mxGeometry relative="1" as="geometry" />
        </mxCell>
        <mxCell id="faQm33EsQPKcjgNFkxqq-8" value="Input Pesan" style="shape=parallelogram;perimeter=parallelogramPerimeter;whiteSpace=wrap;html=1;fixedSize=1;" vertex="1" parent="1">
          <mxGeometry x="340" y="700" width="120" height="60" as="geometry" />
        </mxCell>
        <mxCell id="faQm33EsQPKcjgNFkxqq-13" value="" style="edgeStyle=orthogonalEdgeStyle;rounded=0;orthogonalLoop=1;jettySize=auto;html=1;" edge="1" parent="1" source="faQm33EsQPKcjgNFkxqq-10" target="faQm33EsQPKcjgNFkxqq-12">
          <mxGeometry relative="1" as="geometry" />
        </mxCell>
        <mxCell id="faQm33EsQPKcjgNFkxqq-10" value="Kirim Pesan" style="whiteSpace=wrap;html=1;" vertex="1" parent="1">
          <mxGeometry x="340" y="810" width="120" height="60" as="geometry" />
        </mxCell>
        <mxCell id="faQm33EsQPKcjgNFkxqq-12" value="Selesai" style="ellipse;whiteSpace=wrap;html=1;" vertex="1" parent="1">
          <mxGeometry x="340" y="910" width="120" height="80" as="geometry" />
        </mxCell>
      </root>
    </mxGraphModel>
  </diagram>
</mxfile>
